<svg width="901" height="679" viewBox="0 0 901 679" fill="none" xmlns="http://www.w3.org/2000/svg">



    <path id="Vector_2"
        d="M887.072 188.167L887.217 188.078L887.45 263.563L887.451 264.128L887.726 264.093L887.586 340.565L887.314 342.907L886.609 342.509C886.611 342.497 886.613 342.485 886.615 342.472C886.646 342.274 886.675 342.019 886.701 341.717C886.754 341.111 886.8 340.285 886.84 339.273C886.92 337.246 886.978 334.449 887.017 331.125C887.096 324.475 887.104 315.701 887.079 306.725C887.054 297.749 886.996 288.57 886.942 281.111C886.924 278.573 886.907 276.235 886.891 274.171C886.862 270.243 886.84 267.311 886.835 265.896L886.933 265.589L886.956 265.515L886.956 265.437L886.877 206.698L886.877 206.696L886.9 192.474C886.9 192.473 886.9 192.472 886.9 192.471C886.904 192.132 886.89 191.741 886.876 191.341L886.876 191.331C886.862 190.922 886.847 190.498 886.848 190.082C886.849 189.303 886.905 188.627 887.072 188.167ZM887.286 146.031L886.908 146.029L887.027 127.061L887.101 127.07C887.12 127.157 887.139 127.267 887.158 127.401C887.209 127.757 887.255 128.246 887.295 128.858C887.374 130.078 887.429 131.748 887.464 133.732C887.524 137.157 887.526 141.498 887.497 146.032L887.286 146.031Z"
        fill="#8E9096" stroke="black" />
    <path id="section_51" d="M505.724 199.742L515.055 199.788L515.056 238.858L505.891 238.728L505.724 199.742Z"
        fill="#FEFE7E" stroke="black" />
    <path id="section_77" d="M195.968 199.744L205.483 199.806L205.494 238.819L196.096 238.78L195.968 199.744Z"
        fill="#FEFE7E" stroke="black" />
    <path id="Vector_3"
        d="M847.376 406.431L838.219 406.479L838.221 365.856L838.221 365.855L838.203 354.539L838.203 354.538C838.202 354.088 838.209 353.624 838.216 353.152C838.241 351.636 838.266 350.034 838.002 348.505L847.294 348.579L847.376 406.431Z"
        fill="#EE9A33" stroke="black" />
    <path id="section_25"
        d="M837.219 406.995L827.133 406.975L827.133 406.968L827.137 406.939L827.137 406.91L827.078 348.588L837.004 348.606C837.263 350.038 837.24 351.536 837.217 353.063C837.209 353.553 837.201 354.047 837.203 354.541C837.203 354.542 837.203 354.542 837.203 354.542L837.221 365.856L837.221 365.857L837.219 406.982L837.219 406.995Z"
        fill="#EE9A33" stroke="black" />
    <g id="Vector_4">
        <mask id="path-8-inside-2_38_284" fill="white">
            <path
                d="M847.876 406.928L847.803 407.516L826.571 407.474L826.637 406.91L837.118 407.057L837.008 368.38C837.082 361.802 837.718 354.619 837.044 348.106L837.39 348C837.877 350.107 837.696 352.386 837.703 354.54L837.721 365.856L837.719 406.982L847.876 406.928Z" />
        </mask>
        <path
            d="M847.876 406.928L847.803 407.516L826.571 407.474L826.637 406.91L837.118 407.057L837.008 368.38C837.082 361.802 837.718 354.619 837.044 348.106L837.39 348C837.877 350.107 837.696 352.386 837.703 354.54L837.721 365.856L837.719 406.982L847.876 406.928Z"
            fill="#D99027" />
        <path
            d="M847.876 406.928L848.869 407.051L849.009 405.922L847.871 405.928L847.876 406.928ZM847.803 407.516L847.801 408.516L848.687 408.518L848.796 407.639L847.803 407.516ZM826.571 407.474L825.578 407.358L825.447 408.472L826.569 408.474L826.571 407.474ZM826.637 406.91L826.651 405.91L825.749 405.897L825.644 406.794L826.637 406.91ZM837.118 407.057L837.104 408.057L838.121 408.071L838.118 407.054L837.118 407.057ZM837.008 368.38L836.008 368.369L836.008 368.376L836.008 368.383L837.008 368.38ZM837.044 348.106L836.751 347.15L835.964 347.39L836.049 348.209L837.044 348.106ZM837.39 348L838.365 347.775L838.123 346.73L837.098 347.044L837.39 348ZM837.703 354.54L838.703 354.538L838.703 354.537L837.703 354.54ZM837.721 365.856L838.721 365.856L838.721 365.854L837.721 365.856ZM837.719 406.982L836.719 406.982L836.719 407.987L837.724 407.982L837.719 406.982ZM846.884 406.805L846.811 407.393L848.796 407.639L848.869 407.051L846.884 406.805ZM847.805 406.516L826.573 406.474L826.569 408.474L847.801 408.516L847.805 406.516ZM827.564 407.59L827.63 407.026L825.644 406.794L825.578 407.358L827.564 407.59ZM826.623 407.91L837.104 408.057L837.132 406.057L826.651 405.91L826.623 407.91ZM838.118 407.054L838.008 368.377L836.008 368.383L836.118 407.06L838.118 407.054ZM838.008 368.391C838.081 361.927 838.72 354.59 838.039 348.003L836.049 348.209C836.715 354.648 836.084 361.677 836.008 368.369L838.008 368.391ZM837.336 349.062L837.683 348.956L837.098 347.044L836.751 347.15L837.336 349.062ZM836.416 348.225C836.869 350.187 836.695 352.269 836.703 354.543L838.703 354.537C838.696 352.503 838.885 350.027 838.365 347.775L836.416 348.225ZM836.703 354.542L836.721 365.858L838.721 365.854L838.703 354.538L836.703 354.542ZM836.721 365.856L836.719 406.982L838.719 406.982L838.721 365.856L836.721 365.856ZM837.724 407.982L847.882 407.928L847.871 405.928L837.713 405.982L837.724 407.982Z"
            fill="black" mask="url(#path-8-inside-2_38_284)" />
    </g>
    <path id="section_80"
        d="M192.683 342.658L201.649 342.701L201.75 422.32L192.772 422.216L192.655 414.32L192.655 414.316L192.683 342.658Z"
        fill="#E7AB7D" stroke="black" />
    <path id="section_81"
        d="M201.936 500.249L192.333 500.632L192.384 442.813V442.813C192.383 440.054 192.312 437.229 192.239 434.383C192.145 430.661 192.05 426.903 192.111 423.208L192.273 423.21L201.752 423.32L201.936 500.249Z"
        fill="#D5D1D5" stroke="black" />
    <path id="section_52" d="M515.242 316.805L505.916 316.843L505.893 239.728L515.436 239.863L515.242 316.805Z"
        fill="#D99027" stroke="black" />
    <path id="section_91"
        d="M88.904 333.954L88.904 333.958L88.958 343.139L88.9581 343.145C88.9644 343.492 88.9863 343.863 89.008 344.233L89.0096 344.259C89.0321 344.641 89.0543 345.025 89.062 345.404C89.0746 346.023 89.0468 346.593 88.9331 347.078L87.2518 347.087L86.7759 347.031L86.7536 347.029L86.7312 347.028L76.2355 346.752L76.2995 284.743L88.9763 284.78L88.904 333.954Z"
        fill="#C7DB52" stroke="black" />
    <path id="section_83"
        d="M161.062 366.618V366.618L161.055 351.151V351.15C161.054 350.431 161.071 349.679 161.088 348.911C161.132 346.873 161.18 344.717 160.914 342.724L170.823 342.8L170.828 402.475L170.828 402.475L170.821 416.517C170.821 417.044 170.84 417.605 170.861 418.172L170.861 418.179C170.881 418.752 170.901 419.332 170.903 419.907C170.907 420.934 170.851 421.914 170.644 422.761L168.986 422.934L161.032 422.844L161.062 366.618Z"
        fill="#EEC13F" stroke="black" />
    <path id="section_84"
        d="M160.032 423.388L160.032 423.338L160.062 366.618V366.618L160.055 351.152V351.151L160.555 351.151C160.554 350.405 160.571 349.637 160.588 348.858C160.637 346.63 160.688 344.321 160.332 342.22L160.032 423.388ZM160.032 423.388C158.686 423.404 157.348 423.46 156.02 423.515C155.727 423.528 155.435 423.54 155.144 423.552C153.564 423.615 151.995 423.666 150.416 423.637L150.374 342.75C150.465 342.724 150.578 342.698 150.715 342.673C151.019 342.617 151.401 342.574 151.841 342.544C152.722 342.482 153.803 342.47 154.911 342.486C156.847 342.514 158.832 342.625 159.9 342.693L160.032 423.388Z"
        fill="#D5D1D5" stroke="black" />
    <path id="section_78"
        d="M196.07 316.845L196.098 239.78L205.992 239.821L206.267 239.822L206.218 316.875L196.07 316.845Z"
        fill="#EE9A33" stroke="black" />
    <path id="Vector_5"
        d="M75.2994 284.782L74.8238 284.82L74.8035 284.821L74.7832 284.821L65.5986 284.788C65.5983 284.788 65.5981 284.788 65.5979 284.788L65.5972 284.788L65.599 284.288C65.3643 284.288 65.1249 284.28 64.8836 284.272C63.8951 284.239 62.875 284.205 62.019 284.698L75.2994 284.782ZM75.2994 284.782L75.2351 347.146L62.2112 347.21C62.2149 345.342 62.1861 341.333 62.1492 336.202C62.1049 330.032 62.0489 322.241 62.0239 314.601C61.9998 307.274 62.0041 300.083 62.0741 294.584C62.1091 291.834 62.1605 289.511 62.2327 287.807C62.2689 286.955 62.3101 286.262 62.3564 285.751C62.3797 285.495 62.4037 285.291 62.428 285.137C62.4337 285.101 62.4392 285.069 62.4446 285.04L75.2994 284.782Z"
        fill="#C7DB52" stroke="black" />
    <g id="section_93">
        <path id="Vector_6"
            d="M89.3392 425.712L89.3392 425.716L89.3932 434.897L89.3933 434.903C89.3996 435.25 89.4214 435.621 89.4432 435.991L89.4447 436.017C89.4672 436.399 89.4895 436.783 89.4972 437.162C89.5098 437.781 89.4819 438.351 89.3683 438.836L87.6869 438.845L87.2111 438.789L87.1888 438.787L87.1664 438.786L76.6707 438.51L76.7347 376.501L89.4115 376.538L89.3392 425.712Z"
            fill="#C7DB52" stroke="black" />
        <path id="Vector_7"
            d="M76.0754 376.54L75.5998 376.578L75.5795 376.579L75.5592 376.579L66.3746 376.546C66.3743 376.546 66.3741 376.546 66.3739 376.546L66.3732 376.546L66.375 376.046C66.1403 376.046 65.9009 376.038 65.6596 376.03C64.6711 375.997 63.651 375.963 62.795 376.456L76.0754 376.54ZM76.0754 376.54L76.0111 438.904L62.9872 438.968C62.9909 437.1 62.9621 433.091 62.9252 427.96C62.8809 421.79 62.8249 413.999 62.7999 406.359C62.7758 399.032 62.7801 391.841 62.8501 386.342C62.8851 383.592 62.9365 381.269 63.0087 379.565C63.0449 378.713 63.0861 378.02 63.1325 377.509C63.1557 377.253 63.1797 377.049 63.204 376.895C63.2097 376.859 63.2152 376.827 63.2206 376.798L76.0754 376.54Z"
            fill="#C7DB52" stroke="black" />
    </g>
    <g id="section_92">
        <mask id="path-20-inside-3_38_284" fill="white">
            <path
                d="M87.224 347.587L61.709 347.712C61.758 341.18 61.063 286.956 62.019 284.698C62.328 286.778 62.128 289.136 62.129 291.253L62.136 303.615L62.169 347.307L75.003 347.2L75.203 346.755C75.435 345.562 75.156 343.769 75.131 342.531L75.049 333.8L75.057 299.455L75.138 289.221C75.151 287.591 75.374 285.861 74.785 284.321L75.8 284.242L75.735 347.239L86.718 347.528L87.224 347.587Z" />
        </mask>
        <path
            d="M87.224 347.587L61.709 347.712C61.758 341.18 61.063 286.956 62.019 284.698C62.328 286.778 62.128 289.136 62.129 291.253L62.136 303.615L62.169 347.307L75.003 347.2L75.203 346.755C75.435 345.562 75.156 343.769 75.131 342.531L75.049 333.8L75.057 299.455L75.138 289.221C75.151 287.591 75.374 285.861 74.785 284.321L75.8 284.242L75.735 347.239L86.718 347.528L87.224 347.587Z"
            fill="#B6BF77" />
        <path
            d="M87.224 347.587L87.2289 348.587L87.3398 346.594L87.224 347.587ZM61.709 347.712L60.709 347.705L60.7014 348.717L61.7139 348.712L61.709 347.712ZM62.019 284.698L63.0081 284.551L62.4853 281.032L61.0981 284.308L62.019 284.698ZM62.129 291.253L61.129 291.253V291.254L62.129 291.253ZM62.136 303.615L61.136 303.616V303.616L62.136 303.615ZM62.169 347.307L61.169 347.308L61.1698 348.315L62.1773 348.307L62.169 347.307ZM75.003 347.2L75.0113 348.2L75.6523 348.195L75.9151 347.61L75.003 347.2ZM75.203 346.755L76.1151 347.165L76.1625 347.059L76.1846 346.946L75.203 346.755ZM75.131 342.531L74.131 342.54L74.1312 342.551L75.131 342.531ZM75.049 333.8L74.049 333.8L74.0491 333.809L75.049 333.8ZM75.057 299.455L74.057 299.447L74.057 299.455L75.057 299.455ZM75.138 289.221L74.138 289.213V289.213L75.138 289.221ZM74.785 284.321L74.7074 283.324L73.3727 283.428L73.851 284.678L74.785 284.321ZM75.8 284.242L76.8 284.243L76.8011 283.161L75.7224 283.245L75.8 284.242ZM75.735 347.239L74.735 347.238L74.734 348.213L75.7087 348.239L75.735 347.239ZM86.718 347.528L86.8338 346.535L86.7892 346.53L86.7443 346.528L86.718 347.528ZM87.2191 346.587L61.7041 346.712L61.7139 348.712L87.2289 348.587L87.2191 346.587ZM62.709 347.72C62.7335 344.448 62.5719 329.234 62.5239 314.599C62.4998 307.273 62.5041 300.085 62.574 294.591C62.609 291.842 62.6603 289.525 62.7323 287.828C62.7683 286.979 62.8091 286.296 62.8544 285.796C62.8771 285.546 62.9 285.353 62.9219 285.215C62.948 285.05 62.962 285.036 62.9398 285.088L61.0981 284.308C61.0163 284.501 60.9737 284.73 60.9464 284.903C60.9148 285.102 60.8873 285.343 60.8626 285.616C60.813 286.162 60.7706 286.882 60.7341 287.744C60.6609 289.47 60.6093 291.811 60.5742 294.565C60.5041 300.077 60.4998 307.277 60.5239 314.606C60.5721 329.28 60.7335 344.444 60.709 347.705L62.709 347.72ZM61.0298 284.845C61.3246 286.829 61.128 289.009 61.129 291.253L63.129 291.253C63.1281 289.263 63.3314 286.727 63.0081 284.551L61.0298 284.845ZM61.129 291.254L61.136 303.616L63.136 303.614L63.129 291.252L61.129 291.254ZM61.136 303.616L61.169 347.308L63.169 347.306L63.136 303.614L61.136 303.616ZM62.1773 348.307L75.0113 348.2L74.9947 346.2L62.1607 346.307L62.1773 348.307ZM75.9151 347.61L76.1151 347.165L74.2909 346.345L74.0909 346.79L75.9151 347.61ZM76.1846 346.946C76.3268 346.215 76.3057 345.357 76.2617 344.602C76.2138 343.781 76.1429 343.111 76.1308 342.511L74.1312 342.551C74.1441 343.189 74.2252 344.035 74.2651 344.718C74.3087 345.467 74.3112 346.102 74.2214 346.564L76.1846 346.946ZM76.1309 342.522L76.049 333.791L74.0491 333.809L74.131 342.54L76.1309 342.522ZM76.049 333.8L76.057 299.455L74.057 299.455L74.049 333.8L76.049 333.8ZM76.057 299.463L76.138 289.229L74.138 289.213L74.057 299.447L76.057 299.463ZM76.138 289.229C76.1436 288.527 76.2031 287.536 76.187 286.718C76.1697 285.835 76.0722 284.887 75.719 283.964L73.851 284.678C74.0867 285.295 74.1722 285.982 74.1874 286.757C74.2039 287.596 74.1454 288.285 74.138 289.213L76.138 289.229ZM74.8626 285.318L75.8776 285.239L75.7224 283.245L74.7074 283.324L74.8626 285.318ZM74.8 284.241L74.735 347.238L76.735 347.24L76.8 284.243L74.8 284.241ZM75.7087 348.239L86.6917 348.528L86.7443 346.528L75.7613 346.239L75.7087 348.239ZM86.6022 348.521L87.1082 348.58L87.3398 346.594L86.8338 346.535L86.6022 348.521Z"
            fill="black" mask="url(#path-20-inside-3_38_284)" />
    </g>
    <path id="section_23" d="M821.273 251.744L821.189 199.779L841.33 199.759L841.355 251.798L821.273 251.744Z"
        fill="#F33517" stroke="black" />
    <path id="Vector 16" d="M831 200V252" stroke="black" />
    <path id="section_27" d="M776.144 199.719L796.285 199.74V251.799L776.134 251.75L776.144 199.719Z" fill="#F33517"
        stroke="black" />
    <path id="section_28" d="M776.084 264.643L796.309 264.697L796.318 316.868L776.101 316.845L776.084 264.643Z"
        fill="#D99027" stroke="black" />
    <path id="Vector 2" d="M786 264V317" stroke="black" />
    <path id="Vector 3" d="M786 199V252" stroke="black" />
    <path id="section_24"
        d="M821.146 283.373V283.372L821.106 270.261C821.106 270.261 821.106 270.261 821.106 270.26C821.104 269.779 821.086 269.268 821.066 268.752C821.065 268.72 821.064 268.688 821.063 268.656C821.044 268.169 821.026 267.676 821.019 267.186C821.007 266.291 821.036 265.432 821.173 264.673L841.404 264.674L841.417 316.863L821.158 316.826C820.799 309.606 820.916 302.276 821.032 294.958C821.094 291.087 821.155 287.219 821.146 283.373Z"
        fill="#D99027" stroke="black" />
    <path id="section_26" d="M827.071 407.975L847.304 408.015L847.371 460.276L827.057 460.279L827.071 407.975Z"
        fill="#42AAED" stroke="black" />
    <path id="Vector_8"
        d="M607.49 582.142L607.485 610.426L143.883 610.44L143.886 630.425C143.885 632.011 144.294 635.653 143.483 636.868L142.761 636.904C141.934 634.558 142.376 630.803 142.367 628.272C142.343 621.917 141.67 614.505 142.662 608.263L189.668 608.085L277.31 608.086L546.137 608.122C551.727 608.123 603.608 608.751 605.305 607.901L605.298 588.929C605.303 586.802 604.84 583.112 605.748 581.274C606.124 583.08 605.909 585.22 605.916 587.066C605.935 591.813 605.63 596.791 606.129 601.508C606.161 600.59 606.143 599.63 606.302 598.725C606.406 598.139 606.469 597.839 606.361 597.235C605.52 592.57 606.696 587.435 606.286 582.697L606.239 582.189L606.586 582.153C606.687 586.397 605.571 606.834 606.899 609.31C606.89 605.761 606.301 584.047 607.211 582.558L607.49 582.142Z"
        fill="#080807" />
    <path id="section_34" d="M750.086 407.977L770.293 407.996L770.348 462.924L750.042 462.888L750.086 407.977Z"
        fill="#42AAED" stroke="black" />
    <path id="section_43" d="M607.212 316.879L607.211 199.827L616.302 199.732L616.307 316.883L607.212 316.879Z"
        fill="#D99027" stroke="black" />
    <path id="section_90" d="M65.559 199.579L86.0847 199.639L86.0582 254.176L65.5579 254.254L65.559 199.579Z"
        fill="#C7DB52" stroke="black" />
    <path id="section_30" d="M788.684 407.948L809.002 408.019L808.993 462.89L788.591 462.911L788.684 407.948Z"
        fill="#42AAED" stroke="black" />
    <path id="section_64" d="M328.605 199.688L337.649 199.716L337.698 316.862L328.62 316.876L328.605 199.688Z"
        fill="#EEC13F" stroke="black" />
    <path id="section_76" d="M207.218 316.887L207.292 199.66L216.38 199.716L216.395 317.091L207.218 316.887Z"
        fill="#FEFE7E" stroke="black" />
    <path id="section_71" d="M249.086 316.838L249.113 199.783L258.25 199.719L258.272 316.941L249.086 316.838Z"
        fill="#EEC13F" stroke="black" />
    <path id="section_68" d="M283.093 199.746L292.516 199.721L292.526 316.87L283.14 316.833L283.093 199.746Z"
        fill="#EEC13F" stroke="black" />
    <path id="section_41"
        d="M634.37 401.103L634.37 401.103C634.371 401.105 634.371 401.104 634.369 401.098C634.366 401.079 634.352 401.011 634.345 400.867C634.339 400.704 634.343 400.504 634.354 400.287C634.361 400.13 634.373 399.955 634.384 399.785C634.401 399.52 634.418 399.266 634.418 399.107C634.418 399.107 634.418 399.107 634.418 399.107L634.422 390.571V390.571L634.377 345.456L655.087 345.522L655.084 401.707L634.819 401.561C634.765 401.512 634.711 401.465 634.665 401.425C634.628 401.392 634.595 401.364 634.57 401.341C634.456 401.237 634.399 401.166 634.37 401.103Z"
        fill="#A0D1D9" stroke="black" />
    <path id="Vector 13" d="M645 346V402" stroke="black" />
    <path id="section_38"
        d="M683.749 462.977L683.788 345.542L693.321 345.535L693.317 462.849L692.823 463.135L683.749 462.977Z"
        fill="#E7AB7D" stroke="black" />
    <path id="section_37" d="M711.452 345.611L721.088 345.6L721.061 462.93L711.457 462.956L711.452 345.611Z"
        fill="#E7AB7D" stroke="black" />
    <path id="section_47" d="M550.908 199.73L560.806 199.748L560.702 316.796L550.928 316.792L550.908 199.73Z"
        fill="#F33517" stroke="black" />
    <path id="section_46" d="M561.702 316.8L561.805 199.748L571.346 199.728L571.34 316.873L561.702 316.8Z"
        fill="#D99027" stroke="black" />
    <path id="section_50" d="M516.242 316.804L516.537 199.728L526.231 199.72L526.225 316.832L516.242 316.804Z"
        fill="#F33517" stroke="black" />
    <path id="section_87" d="M104.644 199.609L114.543 199.737L114.472 316.97L104.68 316.935L104.644 199.609Z"
        fill="#C7DB52" stroke="black" />
    <path id="section_42"
        d="M634.39 420.766V420.765L634.37 409.615C634.37 409.615 634.37 409.615 634.37 409.615C634.369 409.246 634.351 408.844 634.331 408.44L634.33 408.417C634.311 408.017 634.292 407.612 634.288 407.213C634.28 406.54 634.315 405.925 634.443 405.419L655.096 405.661L655.081 463.118C650.091 463.681 644.629 463.507 639.351 463.339C637.676 463.286 636.019 463.233 634.401 463.205L634.39 420.766Z"
        fill="#A0D1D9" stroke="black" />
    <path id="Vector 14" d="M646 405V463" stroke="black" />
    <path id="section_67" d="M303.445 316.864L293.526 316.872L293.516 199.721L303.426 199.742L303.445 316.864Z"
        fill="#D99027" stroke="black" />
    <path id="section_36" d="M722.061 462.928L722.088 345.595L731.985 345.519L731.968 462.9L722.061 462.928Z"
        fill="#42AAED" stroke="black" />
    <path id="section_72" d="M238.115 199.757L248.113 199.785L248.086 316.829L238.111 316.779L238.115 199.757Z"
        fill="#802423" stroke="black" />
    <path id="section_86" d="M115.472 316.978L115.543 199.745L125.355 199.786L125.343 317.107L115.472 316.978Z"
        fill="#FEFE7E" stroke="black" />
    <path id="section_63" d="M348.861 316.824L338.698 316.859L338.649 199.718L348.849 199.727L348.861 316.824Z"
        fill="#D99027" stroke="black" />
    <path id="section_33" d="M770.292 406.996L750.086 406.977L750.061 345.626L770.264 345.623L770.292 406.996Z"
        fill="#EE9A33" stroke="black" />
    <path id="section_29" d="M809.002 407.019L788.684 406.948L788.614 345.641L808.983 345.613L809.002 407.019Z"
        fill="#EE9A33" stroke="black" />
    <path id="Vector 4" d="M799 346V463" stroke="black" />
    <path id="section_39"
        d="M672.746 463.121L672.528 345.501L682.788 345.54L682.749 463.411C679.357 463.479 675.983 463.452 672.746 463.121Z"
        fill="#A0D1D9" stroke="black" />
    <path id="section_54" d="M505.5 343.5H515.5V343.79V343.79L515.481 459.5H513.071H505.5V343.5Z" stroke="black" />
    <path id="section_44"
        d="M606.211 199.765L606.212 316.812L606.211 316.812L606.179 316.812L595.748 316.833L595.727 199.723L605.964 199.73L606.211 199.765Z"
        fill="#D99027" stroke="black" />
    <g id="Vector_9">
        <mask id="path-60-inside-4_38_284" fill="white">
            <path d="M606.711 199.332L606.712 317.379L606.18 317.312L606 199.23L606.711 199.332Z" />
        </mask>
        <path d="M606.711 199.332L606.712 317.379L606.18 317.312L606 199.23L606.711 199.332Z" fill="#AB7726" />
        <path
            d="M606.711 199.332L607.711 199.332L607.711 198.465L606.853 198.342L606.711 199.332ZM606.712 317.379L606.587 318.371L607.712 318.513L607.712 317.379L606.712 317.379ZM606.18 317.312L605.18 317.314L605.181 318.194L606.055 318.304L606.18 317.312ZM606 199.23L606.142 198.24L604.998 198.076L605 199.232L606 199.23ZM605.711 199.332L605.712 317.379L607.712 317.379L607.711 199.332L605.711 199.332ZM606.837 316.387L606.305 316.32L606.055 318.304L606.587 318.371L606.837 316.387ZM607.18 317.31L607 199.228L605 199.232L605.18 317.314L607.18 317.31ZM605.858 200.22L606.569 200.322L606.853 198.342L606.142 198.24L605.858 200.22Z"
            fill="black" mask="url(#path-60-inside-4_38_284)" />
    </g>
    <path id="section_48"
        d="M560.526 343.939V343.939V343.5L571.5 343.501L571.462 459.498C569.756 459.5 567.083 459.5 564.747 459.5C563.457 459.499 562.271 459.499 561.406 459.498L560.5 459.498V459.263L560.526 343.939Z"
        fill="#A0D1D9" stroke="black" />
    <g id="Vector_10">
        <mask id="path-63-inside-5_38_284" fill="white">
            <path
                d="M889.901 578.504L889.862 581.737C889.615 581.896 889.399 582.118 889.122 582.214C888.458 582.444 886.683 582.209 885.934 582.208L875.936 582.191L825.332 582.17L679.996 582.165L607.49 582.142L607.211 582.558C606.301 584.047 606.89 605.761 606.899 609.31C605.571 606.834 606.687 586.397 606.586 582.153L606.239 582.189L606.286 582.697C606.696 587.435 605.52 592.57 606.361 597.235C606.469 597.839 606.406 598.139 606.302 598.725C606.143 599.63 606.161 600.59 606.129 601.508C605.63 596.791 605.935 591.813 605.916 587.066C605.909 585.22 606.124 583.08 605.748 581.274L606.899 579.913L886.287 579.971L887.39 579.609L887.308 466.015C887.293 465.043 887.425 464.196 886.786 463.435C886.07 461.096 886.366 458.239 886.356 455.804L886.324 442.586L886.344 388.924C886.367 377.099 885.645 364.926 886.327 353.142C886.376 352.284 886.624 351.444 886.9 350.635C887.686 349.717 887.337 344.962 887.36 343.507L887.747 343.511L888.086 340.594L888.227 263.526C888.893 256.757 888.409 249.536 888.409 242.723L888.399 203.201L888.395 193.479C888.394 192.406 888.133 190.415 888.393 189.442C888.483 189.105 889.081 188.441 889.301 188.122L889.351 339.999L889.318 510.036L889.327 556.75L889.345 570.832C889.349 573.312 888.981 576.184 889.901 578.504ZM886.287 579.971L606.899 579.913L605.748 581.274C606.124 583.08 605.909 585.22 605.916 587.066C605.935 591.813 605.63 596.791 606.129 601.508C606.161 600.59 606.143 599.63 606.302 598.725C606.406 598.139 606.469 597.839 606.361 597.235C605.52 592.57 606.696 587.435 606.286 582.697L606.239 582.189L606.586 582.153C606.687 586.397 605.571 606.834 606.899 609.31C606.89 605.761 606.301 584.047 607.211 582.558L607.49 582.142C607.915 581.877 608.374 581.637 608.879 581.579C611.494 581.282 614.473 581.564 617.119 581.562L634.401 581.552L693.64 581.547L888.022 581.551V581.308H646.411C645.577 581.308 643.957 581.521 643.194 581.308C642.821 581.205 642.543 580.888 642.217 580.678C643.32 580.193 644.8 580.405 646 580.407L654.577 580.411L693.499 580.427L842.719 580.451L871.812 580.442C876.246 580.439 882.145 581.239 886.287 579.971Z" />
        </mask>
        <path
            d="M889.901 578.504L889.862 581.737C889.615 581.896 889.399 582.118 889.122 582.214C888.458 582.444 886.683 582.209 885.934 582.208L875.936 582.191L825.332 582.17L679.996 582.165L607.49 582.142L607.211 582.558C606.301 584.047 606.89 605.761 606.899 609.31C605.571 606.834 606.687 586.397 606.586 582.153L606.239 582.189L606.286 582.697C606.696 587.435 605.52 592.57 606.361 597.235C606.469 597.839 606.406 598.139 606.302 598.725C606.143 599.63 606.161 600.59 606.129 601.508C605.63 596.791 605.935 591.813 605.916 587.066C605.909 585.22 606.124 583.08 605.748 581.274L606.899 579.913L886.287 579.971L887.39 579.609L887.308 466.015C887.293 465.043 887.425 464.196 886.786 463.435C886.07 461.096 886.366 458.239 886.356 455.804L886.324 442.586L886.344 388.924C886.367 377.099 885.645 364.926 886.327 353.142C886.376 352.284 886.624 351.444 886.9 350.635C887.686 349.717 887.337 344.962 887.36 343.507L887.747 343.511L888.086 340.594L888.227 263.526C888.893 256.757 888.409 249.536 888.409 242.723L888.399 203.201L888.395 193.479C888.394 192.406 888.133 190.415 888.393 189.442C888.483 189.105 889.081 188.441 889.301 188.122L889.351 339.999L889.318 510.036L889.327 556.75L889.345 570.832C889.349 573.312 888.981 576.184 889.901 578.504ZM886.287 579.971L606.899 579.913L605.748 581.274C606.124 583.08 605.909 585.22 605.916 587.066C605.935 591.813 605.63 596.791 606.129 601.508C606.161 600.59 606.143 599.63 606.302 598.725C606.406 598.139 606.469 597.839 606.361 597.235C605.52 592.57 606.696 587.435 606.286 582.697L606.239 582.189L606.586 582.153C606.687 586.397 605.571 606.834 606.899 609.31C606.89 605.761 606.301 584.047 607.211 582.558L607.49 582.142C607.915 581.877 608.374 581.637 608.879 581.579C611.494 581.282 614.473 581.564 617.119 581.562L634.401 581.552L693.64 581.547L888.022 581.551V581.308H646.411C645.577 581.308 643.957 581.521 643.194 581.308C642.821 581.205 642.543 580.888 642.217 580.678C643.32 580.193 644.8 580.405 646 580.407L654.577 580.411L693.499 580.427L842.719 580.451L871.812 580.442C876.246 580.439 882.145 581.239 886.287 579.971Z"
            fill="#080807" />
        <path
            d="M607.211 582.558L606.796 582.279L606.79 582.288L606.784 582.297L607.211 582.558ZM606.899 609.31L606.458 609.546L607.399 609.309L606.899 609.31ZM606.586 582.153L607.086 582.141L607.073 581.6L606.534 581.656L606.586 582.153ZM606.239 582.189L606.187 581.692L605.696 581.743L605.741 582.235L606.239 582.189ZM606.286 582.697L606.784 582.654L606.784 582.651L606.286 582.697ZM606.361 597.235L606.853 597.147L606.853 597.146L606.361 597.235ZM606.302 598.725L605.81 598.638L605.81 598.638L606.302 598.725ZM606.129 601.508L605.632 601.561L606.629 601.525L606.129 601.508ZM605.916 587.066L605.416 587.068V587.068L605.916 587.066ZM605.748 581.274L605.366 580.951L605.209 581.137L605.258 581.376L605.748 581.274ZM606.899 579.913L606.899 579.413L606.667 579.413L606.517 579.59L606.899 579.913ZM607.075 581.864L606.796 582.279L607.626 582.836L607.905 582.421L607.075 581.864ZM606.784 582.297C606.675 582.476 606.612 582.731 606.566 582.972C606.516 583.235 606.474 583.563 606.438 583.942C606.366 584.701 606.314 585.697 606.277 586.851C606.204 589.161 606.193 592.134 606.21 595.164C606.245 601.263 606.394 607.513 606.399 609.311L607.399 609.309C607.395 607.558 607.245 601.177 607.21 595.159C607.193 592.131 607.204 589.174 607.277 586.883C607.313 585.736 607.364 584.764 607.434 584.037C607.468 583.673 607.507 583.378 607.549 583.158C607.57 583.047 607.59 582.962 607.609 582.9C607.629 582.832 607.641 582.813 607.638 582.819L606.784 582.297ZM607.34 609.074C607.224 608.858 607.102 608.358 607.005 607.547C606.91 606.762 606.845 605.76 606.804 604.601C606.72 602.284 606.732 599.375 606.782 596.403C606.882 590.483 607.137 584.275 607.086 582.141L606.086 582.165C606.136 584.275 605.883 590.408 605.782 596.386C605.732 599.363 605.72 602.293 605.804 604.637C605.846 605.808 605.913 606.842 606.012 607.666C606.108 608.463 606.242 609.143 606.458 609.546L607.34 609.074ZM606.534 581.656L606.187 581.692L606.291 582.686L606.638 582.65L606.534 581.656ZM605.741 582.235L605.788 582.743L606.784 582.651L606.737 582.143L605.741 582.235ZM605.788 582.74C605.989 585.064 605.801 587.488 605.663 589.965C605.525 592.424 605.437 594.927 605.869 597.324L606.853 597.146C606.444 594.878 606.523 592.481 606.661 590.021C606.798 587.581 606.993 585.068 606.784 582.654L605.788 582.74ZM605.869 597.323C605.96 597.832 605.913 598.055 605.81 598.638L606.794 598.812C606.899 598.223 606.978 597.846 606.853 597.147L605.869 597.323ZM605.81 598.638C605.643 599.589 605.66 600.61 605.629 601.491L606.629 601.525C606.662 600.57 606.643 599.671 606.794 598.811L605.81 598.638ZM606.626 601.455C606.131 596.772 606.435 591.857 606.416 587.064L605.416 587.068C605.435 591.769 605.129 596.81 605.632 601.561L606.626 601.455ZM606.416 587.064C606.414 586.611 606.426 586.139 606.439 585.65C606.453 585.163 606.467 584.66 606.47 584.158C606.476 583.156 606.436 582.127 606.237 581.172L605.258 581.376C605.436 582.227 605.476 583.171 605.47 584.152C605.467 584.641 605.453 585.132 605.44 585.623C605.427 586.11 605.414 586.598 605.416 587.068L606.416 587.064ZM606.13 581.597L607.281 580.236L606.517 579.59L605.366 580.951L606.13 581.597ZM606.899 580.413L886.287 580.471L886.287 579.471L606.899 579.413L606.899 580.413ZM889.901 578.504L890.901 578.516L890.903 578.319L890.83 578.135L889.901 578.504ZM889.862 581.737L890.404 582.578L890.856 582.287L890.862 581.749L889.862 581.737ZM889.122 582.214L888.795 581.269L888.794 581.269L889.122 582.214ZM885.934 582.208L885.932 583.208H885.932L885.934 582.208ZM875.936 582.191L875.938 581.191H875.937L875.936 582.191ZM825.332 582.17L825.332 581.17H825.332L825.332 582.17ZM679.996 582.165L679.996 583.165H679.996L679.996 582.165ZM607.49 582.142L606.961 581.293L603.998 583.141L607.49 583.142L607.49 582.142ZM886.287 579.971L886.58 580.927L886.59 580.924L886.599 580.921L886.287 579.971ZM887.39 579.609L887.702 580.559L888.391 580.333L888.39 579.608L887.39 579.609ZM887.308 466.015L888.308 466.014L888.308 466.007L888.308 466L887.308 466.015ZM886.786 463.435L885.83 463.728L885.889 463.922L886.02 464.078L886.786 463.435ZM886.356 455.804L885.356 455.806L885.356 455.808L886.356 455.804ZM886.324 442.586L885.324 442.586L885.324 442.588L886.324 442.586ZM886.344 388.924L885.344 388.922L885.344 388.924L886.344 388.924ZM886.327 353.142L885.328 353.084L885.328 353.084L886.327 353.142ZM886.9 350.635L886.141 349.985L886.016 350.13L885.954 350.312L886.9 350.635ZM887.36 343.507L887.37 342.507L886.375 342.497L886.36 343.491L887.36 343.507ZM887.747 343.511L887.737 344.511L888.637 344.52L888.74 343.626L887.747 343.511ZM888.086 340.594L889.079 340.709L889.085 340.653L889.086 340.596L888.086 340.594ZM888.227 263.526L887.232 263.428L887.227 263.476L887.227 263.524L888.227 263.526ZM888.409 242.723L889.409 242.723L889.409 242.723L888.409 242.723ZM888.399 203.201L889.399 203.201L889.399 203.201L888.399 203.201ZM888.395 193.479L887.395 193.479V193.479L888.395 193.479ZM888.393 189.442L887.427 189.184L887.427 189.184L888.393 189.442ZM889.301 188.122L890.301 188.122L890.3 184.907L888.477 187.555L889.301 188.122ZM889.351 339.999L890.351 339.999L890.351 339.999L889.351 339.999ZM889.318 510.036L888.318 510.036V510.036L889.318 510.036ZM889.327 556.75L888.327 556.75L888.327 556.751L889.327 556.75ZM889.345 570.832L888.345 570.833L888.345 570.834L889.345 570.832ZM608.879 581.579L608.766 580.585L608.765 580.585L608.879 581.579ZM617.119 581.562L617.118 580.562H617.118L617.119 581.562ZM634.401 581.552L634.401 580.552H634.4L634.401 581.552ZM693.64 581.547L693.64 580.547H693.64L693.64 581.547ZM888.022 581.551L888.022 582.551L889.022 582.551V581.551H888.022ZM888.022 581.308H889.022V580.308H888.022V581.308ZM643.194 581.308L643.463 580.345L643.46 580.344L643.194 581.308ZM642.217 580.678L641.814 579.763L640.112 580.511L641.675 581.519L642.217 580.678ZM646 580.407L645.998 581.407H645.999L646 580.407ZM654.577 580.411L654.576 581.411H654.577L654.577 580.411ZM693.499 580.427L693.499 581.427H693.499L693.499 580.427ZM842.719 580.451L842.719 581.451H842.72L842.719 580.451ZM871.812 580.442L871.812 581.442H871.813L871.812 580.442ZM888.901 578.492L888.862 581.725L890.862 581.749L890.901 578.516L888.901 578.492ZM889.321 580.896C889.228 580.956 889.145 581.017 889.08 581.066C889.004 581.123 888.967 581.153 888.914 581.191C888.817 581.262 888.79 581.27 888.795 581.269L889.449 583.159C889.73 583.061 889.95 582.911 890.093 582.807C890.279 582.671 890.309 582.639 890.404 582.578L889.321 580.896ZM888.794 581.269C888.795 581.269 888.764 581.279 888.689 581.289C888.617 581.299 888.525 581.307 888.411 581.311C888.182 581.32 887.908 581.313 887.608 581.299C887.074 581.273 886.333 581.209 885.935 581.208L885.932 583.208C886.284 583.208 886.805 583.262 887.511 583.296C887.833 583.312 888.173 583.321 888.487 583.309C888.78 583.298 889.137 583.267 889.449 583.159L888.794 581.269ZM885.935 581.208L875.938 581.191L875.934 583.191L885.932 583.208L885.935 581.208ZM875.937 581.191L825.332 581.17L825.332 583.17L875.936 583.191L875.937 581.191ZM825.332 581.17L679.996 581.165L679.996 583.165L825.332 583.17L825.332 581.17ZM679.996 581.165L607.49 581.142L607.49 583.142L679.996 583.165L679.996 581.165ZM886.599 580.921L887.702 580.559L887.079 578.659L885.976 579.021L886.599 580.921ZM888.39 579.608L888.308 466.014L886.308 466.016L886.39 579.61L888.39 579.608ZM888.308 466C888.302 465.627 888.33 465.023 888.275 464.533C888.21 463.965 888.029 463.361 887.552 462.792L886.02 464.078C886.182 464.27 886.255 464.47 886.288 464.759C886.329 465.126 886.299 465.431 886.308 466.03L888.308 466ZM887.742 463.142C887.426 462.108 887.322 460.921 887.306 459.643C887.298 459.007 887.312 458.365 887.327 457.718C887.342 457.077 887.359 456.426 887.356 455.8L885.356 455.808C885.359 456.4 885.343 457.019 885.327 457.671C885.312 458.318 885.298 458.993 885.306 459.668C885.323 461.012 885.43 462.423 885.83 463.728L887.742 463.142ZM887.356 455.802L887.324 442.584L885.324 442.588L885.356 455.806L887.356 455.802ZM887.324 442.586L887.344 388.924L885.344 388.924L885.324 442.586L887.324 442.586ZM887.344 388.926C887.367 377.01 886.645 364.954 887.325 353.2L885.328 353.084C884.644 364.898 885.367 377.188 885.344 388.922L887.344 388.926ZM887.325 353.2C887.366 352.484 887.575 351.752 887.846 350.958L885.954 350.312C885.672 351.136 885.386 352.083 885.328 353.084L887.325 353.2ZM887.66 351.285C887.892 351.014 888.022 350.683 888.103 350.41C888.189 350.12 888.249 349.796 888.292 349.468C888.378 348.811 888.409 348.038 888.416 347.282C888.423 346.52 888.406 345.745 888.388 345.08C888.371 344.398 888.354 343.859 888.359 343.523L886.36 343.491C886.354 343.882 886.372 344.483 886.389 345.131C886.406 345.795 886.423 346.539 886.416 347.263C886.409 347.992 886.379 348.671 886.309 349.209C886.274 349.478 886.231 349.688 886.186 349.84C886.136 350.008 886.105 350.026 886.141 349.985L887.66 351.285ZM887.349 344.507L887.737 344.511L887.757 342.511L887.37 342.507L887.349 344.507ZM888.74 343.626L889.079 340.709L887.092 340.479L886.754 343.396L888.74 343.626ZM889.086 340.596L889.227 263.528L887.227 263.524L887.086 340.592L889.086 340.596ZM889.222 263.624C889.894 256.791 889.409 249.44 889.409 242.723L887.409 242.723C887.409 249.632 887.892 256.723 887.232 263.428L889.222 263.624ZM889.409 242.723L889.399 203.201L887.399 203.201L887.409 242.723L889.409 242.723ZM889.399 203.201L889.395 193.479L887.395 193.479L887.399 203.201L889.399 203.201ZM889.395 193.479C889.394 192.92 889.325 192.059 889.295 191.379C889.262 190.605 889.275 190.015 889.359 189.7L887.427 189.184C887.251 189.842 887.265 190.734 887.297 191.467C887.333 192.294 887.395 192.965 887.395 193.479L889.395 193.479ZM889.359 189.7C889.341 189.768 889.327 189.768 889.388 189.671C889.437 189.593 889.507 189.495 889.595 189.38C889.682 189.265 889.772 189.152 889.865 189.034C889.95 188.925 890.049 188.799 890.125 188.689L888.477 187.555C888.38 187.696 888.241 187.855 888.002 188.17C887.901 188.303 887.791 188.455 887.696 188.605C887.612 188.738 887.49 188.948 887.427 189.184L889.359 189.7ZM888.301 188.122L888.351 339.999L890.351 339.999L890.301 188.122L888.301 188.122ZM888.351 339.999L888.318 510.036L890.318 510.036L890.351 339.999L888.351 339.999ZM888.318 510.036L888.327 556.75L890.327 556.75L890.318 510.036L888.318 510.036ZM888.327 556.751L888.345 570.833L890.345 570.831L890.327 556.749L888.327 556.751ZM888.345 570.834C888.346 571.434 888.324 572.059 888.305 572.721C888.285 573.375 888.267 574.061 888.28 574.746C888.304 576.108 888.446 577.547 888.971 578.873L890.83 578.135C890.436 577.141 890.302 575.984 890.279 574.71C890.268 574.077 890.284 573.435 890.304 572.781C890.323 572.134 890.346 571.47 890.345 570.83L888.345 570.834ZM608.019 582.991C608.418 582.742 608.719 582.604 608.993 582.572L608.765 580.585C608.029 580.67 607.412 581.012 606.961 581.293L608.019 582.991ZM608.992 582.573C610.229 582.432 611.572 582.427 612.964 582.46C614.327 582.492 615.784 582.563 617.12 582.562L617.118 580.562C615.808 580.563 614.452 580.494 613.011 580.46C611.598 580.427 610.144 580.429 608.766 580.585L608.992 582.573ZM617.12 582.562L634.402 582.552L634.4 580.552L617.118 580.562L617.12 582.562ZM634.401 582.552L693.64 582.547L693.64 580.547L634.401 580.552L634.401 582.552ZM693.64 582.547L888.022 582.551L888.022 580.551L693.64 580.547L693.64 582.547ZM889.022 581.551V581.308H887.022V581.551H889.022ZM888.022 580.308H646.411V582.308H888.022V580.308ZM646.411 580.308C645.972 580.308 645.26 580.366 644.732 580.389C644.103 580.416 643.666 580.402 643.463 580.345L642.925 582.271C643.484 582.427 644.239 582.412 644.82 582.387C645.501 582.357 646.016 582.308 646.411 582.308V580.308ZM643.46 580.344C643.463 580.345 643.453 580.343 643.424 580.326C643.393 580.309 643.351 580.281 643.29 580.235C643.22 580.182 643.169 580.14 643.071 580.063C642.986 579.997 642.879 579.915 642.758 579.837L641.675 581.519C641.802 581.6 641.847 581.651 642.085 581.831C642.27 581.97 642.555 582.169 642.928 582.272L643.46 580.344ZM642.619 581.593C642.984 581.433 643.468 581.367 644.083 581.36C644.385 581.356 644.694 581.367 645.019 581.38C645.335 581.392 645.675 581.406 645.998 581.407L646.002 579.407C645.725 579.407 645.43 579.394 645.096 579.381C644.772 579.368 644.418 579.356 644.061 579.36C643.361 579.368 642.553 579.438 641.814 579.763L642.619 581.593ZM645.999 581.407L654.576 581.411L654.577 579.411L646 579.407L645.999 581.407ZM654.577 581.411L693.499 581.427L693.499 579.427L654.577 579.411L654.577 581.411ZM693.499 581.427L842.719 581.451L842.72 579.451L693.499 579.427L693.499 581.427ZM842.72 581.451L871.812 581.442L871.812 579.442L842.719 579.451L842.72 581.451ZM871.813 581.442C872.895 581.441 874.074 581.49 875.318 581.544C876.554 581.599 877.852 581.66 879.143 581.681C881.707 581.722 884.35 581.61 886.58 580.927L885.995 579.015C884.082 579.6 881.704 579.722 879.175 579.681C877.919 579.661 876.652 579.601 875.406 579.546C874.167 579.492 872.945 579.441 871.811 579.442L871.813 581.442Z"
            fill="black" mask="url(#path-63-inside-5_38_284)" />
    </g>
    <path id="Vector_11"
        d="M887.747 343.511L888.152 456.205L887.771 486.938C887.77 496.365 888.517 577.392 887.39 579.609L887.308 466.015C887.293 465.043 887.425 464.196 886.786 463.435C886.07 461.096 886.366 458.239 886.356 455.804L886.324 442.586L886.344 388.924C886.367 377.099 885.645 364.926 886.327 353.142C886.376 352.284 886.624 351.444 886.9 350.635C887.686 349.717 887.337 344.962 887.36 343.507L887.747 343.511Z"
        fill="#8E9096" />
    <path id="Vector_12"
        d="M886.287 579.971C882.145 581.239 876.246 580.439 871.812 580.442L842.72 580.451L693.499 580.427L654.577 580.411L646 580.407C644.8 580.405 643.32 580.193 642.217 580.678C642.543 580.888 642.821 581.205 643.194 581.308C643.957 581.521 645.577 581.308 646.411 581.308H888.022V581.551L693.64 581.547L634.401 581.552L617.119 581.562C614.473 581.564 611.494 581.282 608.879 581.579C608.374 581.637 607.915 581.877 607.49 582.142L607.211 582.558C606.301 584.047 606.89 605.761 606.899 609.31C605.571 606.834 606.687 586.397 606.586 582.153L606.239 582.189L606.286 582.697C606.696 587.435 605.52 592.57 606.361 597.235C606.469 597.839 606.406 598.139 606.302 598.725C606.143 599.63 606.161 600.59 606.129 601.508C605.63 596.791 605.935 591.813 605.916 587.066C605.909 585.22 606.124 583.08 605.748 581.274L606.899 579.913L886.287 579.971Z"
        fill="#080807" fill-opacity="0.988235" />
    <path id="section_20"
        d="M872.705 188.256L885.993 188.325C885.876 188.875 885.848 189.497 885.848 190.08C885.847 190.517 885.862 190.957 885.877 191.363L885.877 191.366C885.891 191.778 885.904 192.148 885.9 192.462H885.9L885.9 192.467L885.877 206.696L885.877 206.698L885.956 265.318L865.809 265.28L865.886 188.354C866.864 188.212 867.931 188.18 869.024 188.187C869.618 188.191 870.213 188.206 870.803 188.222L870.891 188.224C871.507 188.24 872.118 188.256 872.704 188.256C872.704 188.256 872.704 188.256 872.705 188.256Z"
        fill="#CE3729" stroke="black" />
    <path id="section_66"
        d="M338.235 342.808L338.203 500.098C335.925 499.924 333.513 500.014 331.183 500.101C330.326 500.133 329.481 500.164 328.657 500.182L328.645 342.825L338.235 342.808Z"
        fill="#F33517" stroke="black" />
    <path id="section_21"
        d="M885.636 342.258L865.48 342.358C865.49 333.618 865.571 314.76 865.65 297.945C865.69 289.373 865.73 281.332 865.759 275.434C865.774 272.485 865.786 270.072 865.795 268.396L865.805 266.46L865.806 266.28L885.837 266.318C885.844 267.853 885.864 270.606 885.891 274.184C885.907 276.247 885.924 278.583 885.943 281.118C885.996 288.577 886.054 297.754 886.079 306.728C886.104 315.702 886.096 324.471 886.017 331.113C885.978 334.434 885.921 337.22 885.841 339.233C885.801 340.24 885.756 341.048 885.705 341.63C885.683 341.89 885.659 342.099 885.636 342.258Z"
        fill="#EE9A33" stroke="black" />
    <path id="section_89"
        d="M114.348 342.578L114.368 342.578L114.375 342.577L114.32 500.32L104.664 500.245L104.665 342.643L114.348 342.578Z"
        fill="#C7DB52" stroke="black" />
    <path id="section_65"
        d="M339.203 500.137L339.235 342.803L348.869 342.736C348.871 344.795 348.884 349.829 348.903 356.893C348.945 372.771 349.015 398.902 349.041 424.551C349.061 443.622 349.056 462.428 349 476.558C348.971 483.623 348.93 489.517 348.872 493.691C348.843 495.779 348.809 497.433 348.771 498.588C348.753 499.166 348.733 499.614 348.712 499.927C348.71 499.96 348.707 499.992 348.705 500.021L339.203 500.137ZM348.668 500.366C348.668 500.366 348.669 500.363 348.67 500.359C348.669 500.364 348.668 500.366 348.668 500.366Z"
        fill="#577BF4" stroke="black" />
    <path id="section_2" d="M33.4198 501.944L33.399 599.269L16.615 599.282L16.6289 501.944H33.4198Z" fill="#FEFE7E"
        stroke="black" />
    <path id="section_88"
        d="M125.496 343.413L125.496 343.413C125.588 343.662 125.648 344.1 125.672 344.695C125.695 345.276 125.681 345.954 125.653 346.652C125.63 347.213 125.596 347.795 125.564 348.342C125.518 349.127 125.476 349.84 125.477 350.315C125.477 350.315 125.477 350.315 125.477 350.315L125.506 377.51L125.502 500.453C125.121 500.478 124.732 500.505 124.336 500.533C123.056 500.624 121.708 500.719 120.358 500.753C118.573 500.799 116.831 500.736 115.32 500.424L115.375 342.482C116.605 342.35 118.477 342.172 120.303 342.139C121.334 342.12 122.338 342.148 123.195 342.253C124.011 342.353 124.638 342.517 125.033 342.737C125.093 342.82 125.158 342.903 125.214 342.975C125.247 343.018 125.277 343.056 125.301 343.088C125.399 343.218 125.461 343.318 125.496 343.413Z"
        fill="#D5D1D5" stroke="black" />
    <path id="section_79"
        d="M202.751 422.825L202.649 342.705L213.176 342.742L213.228 500.239L202.936 500.229L202.751 422.825L202.751 422.825Z"
        fill="#EEC13F" stroke="black" />
    <path id="section_22"
        d="M865.511 351.086L886.213 351.133C886.022 351.763 885.867 352.428 885.827 353.113L885.827 353.113C885.38 360.838 885.536 368.749 885.69 376.597C885.771 380.735 885.852 384.856 885.844 388.923L885.844 388.924L885.824 442.586L885.824 442.587L885.856 455.805L885.856 455.806C885.859 456.355 885.845 456.927 885.831 457.518L885.827 457.683C885.812 458.33 885.798 458.996 885.806 459.662C885.82 460.762 885.895 461.88 886.136 462.935L865.545 462.931L865.511 351.086Z"
        fill="#577BF4" stroke="black" />
    <path id="section_61"
        d="M403.146 315.622L403.146 315.615L403.111 199.727L383.722 199.698C383.629 199.917 383.587 200.1 383.567 200.284C383.542 200.524 383.553 200.769 383.57 201.126C383.573 201.182 383.576 201.24 383.578 201.302L383.579 201.313L383.579 201.324L383.568 316.877L398.39 316.922L403.146 315.622ZM403.146 315.622L403.146 315.63M403.146 315.622L403.146 315.63M403.146 315.63L403.178 316.735M403.146 315.63L403.178 316.735M403.178 316.735C402.625 316.937 401.903 317.006 401.097 317.008C400.631 317.009 400.157 316.988 399.696 316.967L399.591 316.962C399.171 316.942 398.759 316.923 398.391 316.922L403.178 316.735Z"
        fill="#D99027" stroke="black" />
    <path id="section_55" d="M463.476 199.702L483.445 199.693V316.863L463.516 316.833L463.476 199.702Z" fill="#D99027"
        stroke="black" />
    <path id="section_32"
        d="M731.235 316.648L731.2 199.503L741.34 199.564L741.34 199.564L741.345 199.564L751.061 199.523L751.417 200.098L751.5 316.668L741.368 316.658L731.235 316.648Z"
        fill="#D99027" stroke="black" />
    <path id="section_31"
        d="M751.226 200.541L751.224 200.563L751.224 200.585L751.04 239.239L741.858 238.893L741.692 199.759L750.908 199.72L751.251 200.273L751.226 200.541Z"
        fill="#F33517" stroke="black" />
    <path id="section_82"
        d="M150.54 277.003V277.003L150.516 199.691L170.853 199.743V316.974L150.897 317.095C150.728 316.899 150.659 316.755 150.62 316.615C150.568 316.427 150.56 316.22 150.545 315.84C150.544 315.804 150.543 315.767 150.541 315.727L150.54 277.003Z"
        fill="#FEFE7E" stroke="black" />
    <path id="section_35" d="M685.763 199.72L706.277 199.666L706.355 316.861L685.917 316.829L685.763 199.72Z"
        fill="#D99027" stroke="black" />
    <path id="Vector 11" d="M696 200V318" stroke="black" />
    <path id="section_56"
        d="M463.261 402.527L463.261 402.525L463.137 342.633L483.468 342.47L483.492 460.428L473.111 460.277L473.106 460.277L463.129 460.232L463.261 402.527Z"
        fill="#9B867E" stroke="black" />
    <path id="section_57"
        d="M472.557 343.133L472.614 401.241C471.901 401.234 471.175 401.212 470.433 401.189C469.708 401.167 468.967 401.144 468.208 401.135C466.733 401.117 465.243 401.153 463.841 401.361L463.78 343.177L472.557 343.133Z"
        fill="#A0D1D9" stroke="black" />
    <path id="section_60"
        d="M441.219 316.871L420.715 316.889L420.734 226.332L420.734 226.331L420.689 206.069C420.689 206.069 420.689 206.069 420.689 206.069C420.688 205.582 420.658 205.009 420.626 204.411C420.624 204.374 420.622 204.336 420.62 204.298C420.589 203.729 420.557 203.136 420.542 202.548C420.516 201.441 420.556 200.425 420.755 199.685L441.231 199.758L441.219 316.871Z"
        fill="#D99027" stroke="black" />
    <path id="section_40" d="M640.686 199.721L661.281 199.725L661.273 316.877L640.73 316.829L640.686 199.721Z"
        fill="#D99027" stroke="black" />
    <path id="section_45"
        d="M595.726 463.128L595.518 345.496L606.112 345.532L606.138 345.532L606.164 345.529L606.78 345.467L616.424 345.54L616.458 463.268C614.524 463.277 612.559 463.321 610.583 463.366C605.583 463.48 600.516 463.596 595.726 463.128Z"
        fill="#A0D1D9" stroke="black" />
    <path id="Vector 21" d="M606 346V463.7" stroke="black" />
    <path id="section_10" d="M340.957 145.713L340.919 47.9597L368.225 47.9557L368.215 145.727L340.957 145.713Z"
        fill="#802423" stroke="black" />
    <path id="section_9"
        d="M329.118 47.9603L329.107 145.745L314.904 145.706L314.902 145.706L301.793 145.743L301.801 47.961L314.822 47.9522L314.822 47.9522L329.118 47.9603Z"
        fill="#802423" stroke="black" />
    <path id="section_16" d="M502.418 47.5561H529.556L529.608 146.129L502.401 146.124L502.418 47.5561Z" fill="#ECBEBB"
        stroke="black" />
    <path id="section_12" d="M391.502 48H405.493L405.493 145.485L391.84 145.499L391.502 48Z" fill="#ECBEBB"
        stroke="black" />
    <path id="section_15" d="M459.583 47.6632L487.421 47.539L487.402 146.148L459.583 146.128V47.6632Z" fill="#ECBEBB"
        stroke="black" />
    <path id="section_14"
        d="M434.121 146.254L434.008 146.189L433.877 146.188L426.543 146.136L426.559 72.3747V72.3746L426.557 51.9049C426.557 51.9049 426.557 51.9049 426.557 51.9048C426.557 50.9088 426.543 49.89 426.529 48.8632C426.492 46.1943 426.454 43.4711 426.665 40.9512C426.681 40.9443 426.698 40.937 426.717 40.9296C426.836 40.8825 427 40.8356 427.21 40.7917C427.631 40.7039 428.19 40.6377 428.856 40.591C430.185 40.4977 431.884 40.4857 433.633 40.5125C435.38 40.5392 437.165 40.6043 438.664 40.6636C438.931 40.6741 439.189 40.6845 439.437 40.6945C440.261 40.7276 440.969 40.7561 441.484 40.77L441.5 146.489L436.645 146.462L436.64 146.962L436.643 146.462H436.643C436.425 146.46 436.196 146.47 435.98 146.481L435.934 146.483C435.698 146.494 435.471 146.503 435.249 146.499C434.802 146.491 434.427 146.429 434.121 146.254Z"
        fill="#ECBEBB" stroke="black" />
    <path id="section_13"
        d="M413.903 40.9245L427.215 40.9363L427.113 122.176L427.113 122.177C427.113 123.033 427.081 124.566 427.04 126.46C426.991 128.78 426.93 131.641 426.905 134.454C426.882 136.996 426.888 139.488 426.959 141.471C426.994 142.462 427.046 143.334 427.12 144.025C427.191 144.688 427.288 145.26 427.447 145.596L427.451 145.604L427.455 145.612L427.47 145.641L427.158 145.798L413.714 145.744L413.742 72.0855V72.0852L413.739 51.6435C413.739 51.6435 413.739 51.6434 413.739 51.6433C413.739 50.6357 413.714 49.6104 413.688 48.5804C413.623 45.9882 413.557 43.3666 413.903 40.9245Z"
        fill="#802423" stroke="black" />
    <path id="section_11"
        d="M377.603 48H390.967L390.967 123.673L390.967 123.673C390.968 125.433 391.04 130.807 391.111 135.736C391.147 138.202 391.182 140.558 391.209 142.297C391.222 143.167 391.233 143.883 391.241 144.381L391.25 144.957L391.252 145.108L391.253 145.147L391.253 145.157L391.253 145.159L391.253 145.16C391.253 145.16 391.253 145.16 391.753 145.152L391.253 145.16L391.255 145.286L391.301 145.369L391.021 145.5L377.578 145.45L377.606 77.3067V77.3065L377.603 58.3851C377.603 58.385 377.603 58.3849 377.603 58.3848C377.603 56.707 377.603 53.9858 377.603 51.6842L377.603 48.7289L377.603 48Z"
        fill="#802423" stroke="black" />
    <path id="section_19"
        d="M719.388 127.064L886.027 126.995L885.91 145.609L719.32 145.467L719.102 128.525C719.116 128.132 719.137 127.863 719.193 127.614C719.232 127.44 719.291 127.267 719.388 127.064Z"
        fill="#CE3729" stroke="black" />
    <path id="section_70"
        d="M293.792 500.091H293.79L283.134 500.066L283.243 342.83L303.025 342.85L303.336 343.426L303.362 500.073L293.792 500.091Z"
        fill="#CE3729" stroke="black" />
    <path id="section_69"
        d="M298.825 343.049C300.605 343.023 302.239 343.145 303.336 343.615L303.362 500.073L294.29 500.09L294.017 343.276C294.563 343.257 295.169 343.221 295.802 343.183C295.868 343.179 295.934 343.175 296 343.171C296.91 343.117 297.874 343.063 298.825 343.049Z"
        fill="#F33517" stroke="black" />
    <path id="section_75"
        d="M248.088 342.783V342.783L248.093 342.783L258.277 342.73L258.233 421.329L258.233 421.329L258.183 476.986V476.986L258.182 492.387C258.182 493.11 258.204 493.876 258.227 494.642C258.244 495.223 258.261 495.804 258.268 496.365C258.283 497.594 258.254 498.795 258.091 499.923C257.292 500.185 256.287 500.265 255.21 500.268C254.616 500.27 254.016 500.249 253.431 500.227L253.342 500.224C252.792 500.204 252.252 500.184 251.762 500.185L237.963 500.222L238.02 342.749L248.088 342.783Z"
        fill="#EEC13F" stroke="black" />
    <path id="section_74"
        d="M248.648 421.98L258.232 421.837L258.183 476.983L258.183 476.986L258.043 499.795L248.842 499.851L248.648 421.98Z"
        fill="#802423" stroke="black" />
    <path id="section_73" d="M248.647 420.979L248.59 342.78L258.277 342.73L258.233 420.836L248.647 420.979Z"
        fill="#3966B6" stroke="black" />
    <path id="section_62" d="M398.435 342.73L398.445 500.083L378.02 500.146L378.066 342.737L398.435 342.73Z"
        fill="#577BF4" stroke="black" />
    <path id="section_58" d="M463.521 401.503L472.495 401.5L472.5 460.476L463.5 460.499L463.521 401.503Z" fill="#577BF4"
        stroke="black" />
    <path id="section_59"
        d="M436.807 342.721L436.807 342.721C437.139 342.72 437.536 342.699 437.947 342.677C437.963 342.676 437.979 342.676 437.995 342.675C438.429 342.652 438.885 342.628 439.333 342.623C439.781 342.618 440.21 342.632 440.588 342.681C440.832 342.712 441.042 342.757 441.216 342.814L441.261 463.366V463.366L441.253 489.002C441.253 489.758 441.298 490.685 441.347 491.675L441.348 491.696C441.397 492.7 441.449 493.775 441.464 494.838C441.479 495.901 441.457 496.94 441.358 497.87C441.271 498.68 441.13 499.383 440.918 499.938C438.503 500.262 435.991 500.224 433.479 500.186C432.656 500.173 431.832 500.161 431.013 500.161L430.03 500.076L430.006 500.074L429.982 500.074L420.717 500.165L420.785 343.07L421.226 342.74L436.807 342.721Z"
        fill="#577BF4" stroke="black" />
    <g id="Vector_13">
        <mask id="path-106-inside-6_38_284" fill="white">
            <path
                d="M420.285 342.819L421.06 342.24L436.806 342.221C438.124 342.219 440.574 341.874 441.716 342.483L441.761 463.366L441.753 489.002C441.752 491.989 442.479 497.761 441.269 500.394L441.23 499.929L441.12 342.858L430.774 342.959C430.394 347.209 430.753 351.746 430.786 356.021L430.855 380.616L430.824 462.17L430.775 490.666C430.768 493.307 430.048 498.389 430.991 500.661L429.987 500.574C430.372 497.24 430.161 493.731 430.162 490.365L429.857 466.595L430.152 383.786C430.189 370.277 429.475 356.43 430.344 342.967L420.285 342.819Z" />
        </mask>
        <path
            d="M420.285 342.819L421.06 342.24L436.806 342.221C438.124 342.219 440.574 341.874 441.716 342.483L441.761 463.366L441.753 489.002C441.752 491.989 442.479 497.761 441.269 500.394L441.23 499.929L441.12 342.858L430.774 342.959C430.394 347.209 430.753 351.746 430.786 356.021L430.855 380.616L430.824 462.17L430.775 490.666C430.768 493.307 430.048 498.389 430.991 500.661L429.987 500.574C430.372 497.24 430.161 493.731 430.162 490.365L429.857 466.595L430.152 383.786C430.189 370.277 429.475 356.43 430.344 342.967L420.285 342.819Z"
            fill="#3966B6" />
        <path
            d="M420.285 342.819L419.686 342.018L417.334 343.776L420.27 343.819L420.285 342.819ZM421.06 342.24L421.059 341.24L420.727 341.24L420.461 341.439L421.06 342.24ZM436.806 342.221L436.807 343.221L436.807 343.221L436.806 342.221ZM441.716 342.483L442.716 342.483L442.716 341.883L442.187 341.601L441.716 342.483ZM441.761 463.366L442.761 463.366L442.761 463.366L441.761 463.366ZM441.753 489.002L442.753 489.002V489.002L441.753 489.002ZM441.269 500.394L440.272 500.478L440.59 504.266L442.178 500.812L441.269 500.394ZM441.23 499.929L440.23 499.93L440.23 499.971L440.233 500.013L441.23 499.929ZM441.12 342.858L442.12 342.857L442.119 341.848L441.11 341.858L441.12 342.858ZM430.774 342.959L430.764 341.959L429.859 341.968L429.778 342.87L430.774 342.959ZM430.786 356.021L431.786 356.018L431.786 356.013L430.786 356.021ZM430.855 380.616L431.855 380.616L431.855 380.613L430.855 380.616ZM430.824 462.17L431.824 462.172L431.824 462.17L430.824 462.17ZM430.775 490.666L431.775 490.669L431.775 490.668L430.775 490.666ZM430.991 500.661L430.905 501.657L432.546 501.8L431.915 500.278L430.991 500.661ZM429.987 500.574L428.994 500.459L428.876 501.481L429.901 501.57L429.987 500.574ZM430.162 490.365L431.162 490.365L431.162 490.352L430.162 490.365ZM429.857 466.595L428.857 466.591L428.857 466.6L428.857 466.608L429.857 466.595ZM430.152 383.786L431.152 383.79L431.152 383.789L430.152 383.786ZM430.344 342.967L431.342 343.031L431.41 341.983L430.359 341.967L430.344 342.967ZM420.883 343.62L421.658 343.041L420.461 341.439L419.686 342.018L420.883 343.62ZM421.061 343.24L436.807 343.221L436.805 341.221L421.059 341.24L421.061 343.24ZM436.807 343.221C437.169 343.22 437.599 343.197 438.022 343.174C438.457 343.151 438.902 343.128 439.338 343.123C439.776 343.118 440.178 343.132 440.524 343.177C440.879 343.223 441.112 343.294 441.245 343.365L442.187 341.601C441.749 341.367 441.247 341.254 440.781 341.193C440.305 341.131 439.798 341.117 439.316 341.123C438.832 341.128 438.346 341.154 437.915 341.177C437.472 341.201 437.102 341.221 436.804 341.221L436.807 343.221ZM440.716 342.483L440.761 463.366L442.761 463.366L442.716 342.483L440.716 342.483ZM440.761 463.366L440.753 489.002L442.753 489.002L442.761 463.366L440.761 463.366ZM440.753 489.002C440.753 489.778 440.8 490.727 440.848 491.721C440.898 492.726 440.95 493.792 440.964 494.845C440.979 495.899 440.957 496.916 440.861 497.817C440.763 498.731 440.597 499.461 440.36 499.976L442.178 500.812C442.546 500.01 442.743 499.032 442.849 498.029C442.957 497.015 442.98 495.908 442.964 494.817C442.949 493.724 442.895 492.623 442.846 491.623C442.796 490.612 442.753 489.719 442.753 489.002L440.753 489.002ZM442.265 500.31L442.226 499.845L440.233 500.013L440.272 500.478L442.265 500.31ZM442.23 499.928L442.12 342.857L440.12 342.859L440.23 499.93L442.23 499.928ZM441.11 341.858L430.764 341.959L430.784 343.959L441.13 343.858L441.11 341.858ZM429.778 342.87C429.392 347.182 429.754 351.856 429.786 356.029L431.786 356.013C431.752 351.636 431.396 347.236 431.77 343.048L429.778 342.87ZM429.786 356.024L429.855 380.619L431.855 380.613L431.786 356.018L429.786 356.024ZM429.855 380.616L429.824 462.17L431.824 462.17L431.855 380.616L429.855 380.616ZM429.824 462.168L429.775 490.664L431.775 490.668L431.824 462.172L429.824 462.168ZM429.775 490.663C429.773 491.289 429.729 492.073 429.675 492.962C429.622 493.839 429.559 494.809 429.527 495.768C429.495 496.727 429.492 497.699 429.561 498.59C429.63 499.467 429.772 500.333 430.067 501.044L431.915 500.278C431.738 499.853 431.617 499.232 431.555 498.435C431.495 497.651 431.495 496.761 431.526 495.835C431.557 494.91 431.617 493.972 431.671 493.083C431.725 492.206 431.773 491.363 431.775 490.669L429.775 490.663ZM431.077 499.665L430.073 499.578L429.901 501.57L430.905 501.657L431.077 499.665ZM430.98 500.689C431.374 497.279 431.161 493.647 431.162 490.365L429.162 490.365C429.161 493.815 429.37 497.201 428.994 500.459L430.98 500.689ZM431.162 490.352L430.857 466.582L428.857 466.608L429.162 490.378L431.162 490.352ZM430.857 466.599L431.152 383.79L429.152 383.782L428.857 466.591L430.857 466.599ZM431.152 383.789C431.189 370.203 430.475 356.457 431.342 343.031L429.346 342.903C428.475 356.403 429.189 370.351 429.152 383.783L431.152 383.789ZM430.359 341.967L420.3 341.819L420.27 343.819L430.329 343.967L430.359 341.967Z"
            fill="black" mask="url(#path-106-inside-6_38_284)" />
    </g>
    <path id="Vector_14"
        d="M429.357 466.593L429.357 466.601L429.662 490.365C429.662 490.366 429.662 490.367 429.662 490.368C429.662 491.265 429.676 492.164 429.69 493.063C429.728 495.428 429.766 497.787 429.537 500.078L420.717 500.165L420.785 343.326L429.812 343.459C429.259 352.452 429.397 361.624 429.533 370.726C429.598 375.104 429.664 379.466 429.652 383.785L429.357 466.593Z"
        fill="#577BF4" stroke="black" />
    <path id="section_3" d="M16.6288 500.944L16.5361 199.609L33.4389 199.649L33.42 500.944H16.6288Z" fill="#C7DB52"
        stroke="black" />
    <g id="Vector_15">
        <mask id="path-110-inside-7_38_284" fill="white">
            <path
                d="M14.498 156.747L14.478 650.016C17.989 650.028 36.167 649.373 37.91 650.617L37.797 651.937C35.366 652.596 32.046 652.222 29.491 652.228L12.298 652.244L12.291 134.264L263.263 133.776L263.256 11.0399L566.988 11.029C566.984 22.8356 566.251 121.188 567.224 123.252L795.107 123.254H859.857L877.68 123.261C881.145 123.263 884.843 122.999 888.266 123.521C889.293 124.663 889.799 125.121 889.925 126.735C890.323 131.825 889.96 137.249 889.961 142.366L889.951 174.823L889.949 276.398L889.901 578.504C888.981 576.184 889.349 573.312 889.345 570.832L889.327 556.75L889.318 510.036L889.352 339.999L889.301 188.122C889.081 188.441 888.483 189.105 888.393 189.442C888.133 190.415 888.394 192.406 888.395 193.479L888.399 203.201L888.409 242.723C888.409 249.536 888.893 256.757 888.227 263.526L887.95 263.561L887.668 172.183C887.669 167.407 888.567 128.182 887.47 126.612L886.53 126.495L719.084 126.564C718.689 127.271 718.63 127.713 718.602 128.519L718.826 145.967L717.079 146.214L607.311 146.134L577.794 146.143C573.645 146.145 568.401 145.563 564.404 146.38C557.606 147.259 550.002 146.624 543.112 146.622V34.0592L424.388 33.9794L284.712 33.888L284.701 122.348L284.699 146.09C284.697 149.538 285.134 153.726 284.577 157.094C282.097 157.854 278.682 157.463 276.074 157.461L259.17 157.446L226.5 156.908C219.819 156.901 212.5 156.908 206.009 156.908L150.388 156.667L93.38 156.709L14.498 156.747Z" />
        </mask>
        <path
            d="M14.498 156.747L14.478 650.016C17.989 650.028 36.167 649.373 37.91 650.617L37.797 651.937C35.366 652.596 32.046 652.222 29.491 652.228L12.298 652.244L12.291 134.264L263.263 133.776L263.256 11.0399L566.988 11.029C566.984 22.8356 566.251 121.188 567.224 123.252L795.107 123.254H859.857L877.68 123.261C881.145 123.263 884.843 122.999 888.266 123.521C889.293 124.663 889.799 125.121 889.925 126.735C890.323 131.825 889.96 137.249 889.961 142.366L889.951 174.823L889.949 276.398L889.901 578.504C888.981 576.184 889.349 573.312 889.345 570.832L889.327 556.75L889.318 510.036L889.352 339.999L889.301 188.122C889.081 188.441 888.483 189.105 888.393 189.442C888.133 190.415 888.394 192.406 888.395 193.479L888.399 203.201L888.409 242.723C888.409 249.536 888.893 256.757 888.227 263.526L887.95 263.561L887.668 172.183C887.669 167.407 888.567 128.182 887.47 126.612L886.53 126.495L719.084 126.564C718.689 127.271 718.63 127.713 718.602 128.519L718.826 145.967L717.079 146.214L607.311 146.134L577.794 146.143C573.645 146.145 568.401 145.563 564.404 146.38C557.606 147.259 550.002 146.624 543.112 146.622V34.0592L424.388 33.9794L284.712 33.888L284.701 122.348L284.699 146.09C284.697 149.538 285.134 153.726 284.577 157.094C282.097 157.854 278.682 157.463 276.074 157.461L259.17 157.446L226.5 156.908C219.819 156.901 212.5 156.908 206.009 156.908L150.388 156.667L93.38 156.709L14.498 156.747Z"
            fill="#1B1A1B" />
        <path id="section_wall"
            d="M14.498 156.747L14.4975 155.747L13.498 155.747L13.498 156.747L14.498 156.747ZM14.478 650.016L13.478 650.016L13.478 651.013L14.4746 651.016L14.478 650.016ZM37.91 650.617L38.9063 650.702L38.955 650.134L38.4909 649.803L37.91 650.617ZM37.797 651.937L38.0587 652.902L38.7337 652.719L38.7933 652.022L37.797 651.937ZM29.491 652.228L29.4919 653.228H29.4933L29.491 652.228ZM12.298 652.244H11.298V653.245L12.2989 653.244L12.298 652.244ZM12.291 134.264L12.2891 133.264L11.291 133.266V134.264L12.291 134.264ZM263.263 133.776L263.265 134.776L264.263 134.774L264.263 133.776L263.263 133.776ZM263.256 11.0399L263.256 10.0399L262.256 10.0399L262.256 11.0399L263.256 11.0399ZM566.988 11.029L567.988 11.0293L567.988 10.029L566.988 10.029L566.988 11.029ZM567.224 123.252L566.319 123.678L566.59 124.252L567.224 124.252V123.252ZM795.107 123.254L795.107 124.254H795.107V123.254ZM859.857 123.254L859.858 122.254H859.857V123.254ZM877.68 123.261L877.681 122.261H877.681L877.68 123.261ZM888.266 123.521L889.009 122.852L888.77 122.586L888.416 122.532L888.266 123.521ZM889.925 126.735L890.922 126.657L890.922 126.657L889.925 126.735ZM889.961 142.366L890.961 142.366V142.366L889.961 142.366ZM889.951 174.823L888.951 174.823V174.823L889.951 174.823ZM889.949 276.398L890.949 276.398V276.398L889.949 276.398ZM889.901 578.504L888.971 578.873L890.901 578.504L889.901 578.504ZM889.345 570.832L888.345 570.833L888.345 570.834L889.345 570.832ZM889.327 556.75L888.327 556.75L888.327 556.751L889.327 556.75ZM889.318 510.036L888.318 510.036L888.318 510.036L889.318 510.036ZM889.352 339.999L890.352 339.999L890.352 339.999L889.352 339.999ZM889.301 188.122L890.301 188.122L890.3 184.907L888.477 187.555L889.301 188.122ZM888.393 189.442L887.427 189.184L887.427 189.184L888.393 189.442ZM888.395 193.479L887.395 193.479L888.395 193.479ZM888.399 203.201L889.399 203.201L889.399 203.201L888.399 203.201ZM888.409 242.723L889.409 242.723L889.409 242.723L888.409 242.723ZM888.227 263.526L888.352 264.518L889.144 264.418L889.222 263.624L888.227 263.526ZM887.95 263.561L886.95 263.564L886.953 264.695L888.075 264.553L887.95 263.561ZM887.668 172.183L886.668 172.183L886.668 172.186L887.668 172.183ZM887.47 126.612L888.29 126.039L888.035 125.675L887.594 125.62L887.47 126.612ZM886.53 126.495L886.654 125.503L886.592 125.495L886.53 125.495L886.53 126.495ZM719.084 126.564L719.084 125.564L718.497 125.564L718.211 126.076L719.084 126.564ZM718.602 128.519L717.603 128.484L717.602 128.508L717.602 128.532L718.602 128.519ZM718.826 145.967L718.966 146.957L719.837 146.834L719.826 145.954L718.826 145.967ZM717.079 146.214L717.078 147.214L717.149 147.214L717.219 147.204L717.079 146.214ZM607.311 146.134L607.312 145.134H607.311L607.311 146.134ZM577.794 146.143L577.794 145.143H577.794L577.794 146.143ZM564.404 146.38L564.532 147.372L564.568 147.367L564.604 147.36L564.404 146.38ZM543.112 146.622H542.112V147.622L543.112 147.622L543.112 146.622ZM543.112 34.0592H544.112V33.0599L543.113 33.0592L543.112 34.0592ZM424.388 33.9794L424.389 32.9794H424.389L424.388 33.9794ZM284.712 33.888L284.713 32.888L283.712 32.8873L283.712 33.8879L284.712 33.888ZM284.701 122.348L283.701 122.348V122.348L284.701 122.348ZM284.699 146.09L285.699 146.091V146.09L284.699 146.09ZM284.577 157.094L284.87 158.05L285.463 157.869L285.564 157.257L284.577 157.094ZM276.074 157.461L276.073 158.461H276.073L276.074 157.461ZM259.17 157.446L259.154 158.446L259.161 158.446H259.169L259.17 157.446ZM226.5 156.908L226.516 155.908L226.509 155.908L226.501 155.908L226.5 156.908ZM206.009 156.908L206.005 157.908H206.009V156.908ZM150.388 156.667L150.392 155.667H150.387L150.388 156.667ZM93.38 156.709L93.3805 157.709H93.3807L93.38 156.709ZM13.498 156.747L13.478 650.016L15.478 650.016L15.498 156.747L13.498 156.747ZM14.4746 651.016C15.3666 651.019 17.1801 650.98 19.3934 650.94C21.6175 650.9 24.2665 650.858 26.8583 650.854C29.4536 650.851 31.9758 650.886 33.9505 650.998C34.9399 651.055 35.7714 651.129 36.3976 651.223C36.7112 651.271 36.9547 651.32 37.1316 651.369C37.3304 651.424 37.366 651.457 37.329 651.431L38.4909 649.803C38.2361 649.621 37.9254 649.514 37.6647 649.442C37.3821 649.363 37.0529 649.3 36.6959 649.246C35.9805 649.138 35.0786 649.059 34.0638 649.002C32.0302 648.886 29.4617 648.851 26.8557 648.854C24.2463 648.858 21.5836 648.9 19.3572 648.94C17.1203 648.981 15.3449 649.019 14.4814 649.016L14.4746 651.016ZM36.9136 650.532L36.8007 651.852L38.7933 652.022L38.9063 650.702L36.9136 650.532ZM37.5353 650.972C36.4569 651.264 35.1319 651.338 33.6976 651.327C32.9869 651.322 32.2706 651.297 31.5586 651.273C30.8528 651.249 30.1484 651.227 29.4887 651.228L29.4933 653.228C30.1111 653.227 30.7798 653.248 31.4911 653.272C32.1962 653.296 32.9409 653.322 33.6833 653.327C35.1556 653.338 36.7061 653.269 38.0587 652.902L37.5353 650.972ZM29.4901 651.228L12.2971 651.244L12.2989 653.244L29.4919 653.228L29.4901 651.228ZM13.298 652.244L13.291 134.264L11.291 134.264L11.298 652.244H13.298ZM12.293 135.264L263.265 134.776L263.261 132.776L12.2891 133.264L12.293 135.264ZM264.263 133.776L264.256 11.0398L262.256 11.0399L262.263 133.776L264.263 133.776ZM263.256 12.0399L566.988 12.029L566.988 10.029L263.256 10.0399L263.256 12.0399ZM565.988 11.0287C565.986 16.935 565.802 44.457 565.74 70.7916C565.709 83.9532 565.708 96.8136 565.776 106.514C565.81 111.363 565.861 115.428 565.935 118.347C565.971 119.805 566.014 120.986 566.063 121.839C566.087 122.264 566.114 122.619 566.144 122.891C566.159 123.027 566.176 123.154 566.196 123.265C566.211 123.349 566.244 123.518 566.319 123.678L568.129 122.826C568.174 122.921 568.177 122.979 568.163 122.905C568.155 122.86 568.144 122.784 568.132 122.673C568.107 122.451 568.083 122.135 568.059 121.724C568.012 120.903 567.97 119.748 567.934 118.296C567.861 115.396 567.81 111.346 567.776 106.5C567.708 96.8093 567.709 83.9566 567.74 70.7963C567.802 44.4871 567.986 16.9295 567.988 11.0293L565.988 11.0287ZM567.224 124.252L795.107 124.254L795.107 122.254L567.224 122.252V124.252ZM795.107 124.254H859.857V122.254H795.107V124.254ZM859.857 124.254L877.68 124.261L877.681 122.261L859.858 122.254L859.857 124.254ZM877.68 124.261C881.247 124.263 884.792 124.003 888.115 124.51L888.416 122.532C884.894 121.995 881.042 122.263 877.681 122.261L877.68 124.261ZM887.522 124.19C888.077 124.806 888.366 125.11 888.572 125.459C888.746 125.754 888.874 126.114 888.928 126.813L890.922 126.657C890.851 125.742 890.663 125.066 890.295 124.443C889.959 123.874 889.482 123.378 889.009 122.852L887.522 124.19ZM888.928 126.813C889.322 131.855 888.96 137.151 888.961 142.366L890.961 142.366C890.96 137.347 891.324 131.795 890.922 126.657L888.928 126.813ZM888.961 142.366L888.951 174.823L890.951 174.823L890.961 142.366L888.961 142.366ZM888.951 174.823L888.949 276.398L890.949 276.398L890.951 174.823L888.951 174.823ZM888.949 276.398L888.901 578.504L890.901 578.504L890.949 276.398L888.949 276.398ZM890.83 578.135C890.436 577.141 890.302 575.984 890.279 574.71C890.268 574.077 890.284 573.435 890.304 572.781C890.323 572.134 890.346 571.47 890.345 570.83L888.345 570.834C888.346 571.434 888.324 572.059 888.305 572.721C888.285 573.375 888.267 574.061 888.28 574.746C888.304 576.108 888.446 577.547 888.971 578.873L890.83 578.135ZM890.345 570.831L890.327 556.749L888.327 556.751L888.345 570.833L890.345 570.831ZM890.327 556.75L890.318 510.036L888.318 510.036L888.327 556.75L890.327 556.75ZM890.318 510.036L890.352 339.999L888.352 339.999L888.318 510.036L890.318 510.036ZM890.352 339.999L890.301 188.122L888.301 188.122L888.352 339.999L890.352 339.999ZM888.477 187.555C888.38 187.696 888.242 187.855 888.002 188.17C887.901 188.303 887.791 188.454 887.696 188.605C887.612 188.738 887.49 188.948 887.427 189.184L889.359 189.7C889.341 189.768 889.327 189.768 889.388 189.671C889.437 189.593 889.507 189.495 889.595 189.38C889.682 189.265 889.772 189.152 889.865 189.034C889.95 188.925 890.049 188.799 890.125 188.689L888.477 187.555ZM887.427 189.184C887.251 189.842 887.265 190.734 887.297 191.467C887.333 192.294 887.395 192.965 887.395 193.479L889.395 193.479C889.395 192.92 889.325 192.059 889.295 191.379C889.262 190.605 889.275 190.015 889.359 189.7L887.427 189.184ZM887.395 193.479L887.399 203.201L889.399 203.201L889.395 193.479L887.395 193.479ZM887.399 203.201L887.409 242.723L889.409 242.723L889.399 203.201L887.399 203.201ZM887.409 242.723C887.409 249.632 887.892 256.723 887.232 263.428L889.222 263.624C889.895 256.791 889.409 249.44 889.409 242.723L887.409 242.723ZM888.102 262.534L887.825 262.569L888.075 264.553L888.352 264.518L888.102 262.534ZM888.95 263.558L888.668 172.18L886.668 172.186L886.95 263.564L888.95 263.558ZM888.668 172.183C888.668 169.792 888.893 158.836 888.981 148.204C889.025 142.902 889.034 137.692 888.964 133.706C888.929 131.714 888.874 130.016 888.792 128.76C888.751 128.134 888.702 127.6 888.643 127.188C888.614 126.983 888.579 126.79 888.537 126.622C888.503 126.487 888.436 126.248 888.29 126.039L886.651 127.185C886.573 127.074 886.571 127.007 886.598 127.113C886.616 127.185 886.639 127.302 886.663 127.472C886.712 127.809 886.756 128.284 886.796 128.89C886.875 130.098 886.929 131.759 886.964 133.741C887.034 137.7 887.025 142.889 886.981 148.187C886.893 158.754 886.668 169.798 886.668 172.183L888.668 172.183ZM887.594 125.62L886.654 125.503L886.407 127.487L887.347 127.604L887.594 125.62ZM886.53 125.495L719.084 125.564L719.084 127.564L886.531 127.495L886.53 125.495ZM718.211 126.076C717.977 126.494 717.823 126.872 717.73 127.284C717.64 127.681 717.617 128.073 717.603 128.484L719.601 128.554C719.615 128.159 719.635 127.927 719.681 127.725C719.723 127.538 719.796 127.341 719.957 127.052L718.211 126.076ZM717.602 128.532L717.826 145.98L719.826 145.954L719.602 128.506L717.602 128.532ZM718.686 144.977L716.939 145.224L717.219 147.204L718.966 146.957L718.686 144.977ZM717.08 145.214L607.312 145.134L607.31 147.134L717.078 147.214L717.08 145.214ZM607.311 145.134L577.794 145.143L577.794 147.143L607.311 147.134L607.311 145.134ZM577.794 145.143C575.709 145.144 573.473 145.001 571.061 144.956C568.717 144.913 566.315 144.969 564.204 145.4L564.604 147.36C566.49 146.974 568.709 146.913 571.024 146.956C573.27 146.997 575.73 147.144 577.795 147.143L577.794 145.143ZM564.276 145.388C557.561 146.256 550.126 145.624 543.112 145.622L543.112 147.622C549.878 147.624 557.651 148.262 564.532 147.372L564.276 145.388ZM544.112 146.622V34.0592H542.112V146.622H544.112ZM543.113 33.0592L424.389 32.9794L424.387 34.9794L543.111 35.0592L543.113 33.0592ZM424.389 32.9794L284.713 32.888L284.711 34.888L424.387 34.9794L424.389 32.9794ZM283.712 33.8879L283.701 122.348L285.701 122.348L285.712 33.8881L283.712 33.8879ZM283.701 122.348L283.699 146.09L285.699 146.09L285.701 122.348L283.701 122.348ZM283.699 146.089C283.698 147.816 283.808 149.806 283.846 151.643C283.885 153.529 283.853 155.342 283.59 156.931L285.564 157.257C285.858 155.478 285.886 153.513 285.846 151.601C285.805 149.64 285.698 147.812 285.699 146.091L283.699 146.089ZM284.284 156.138C283.193 156.472 281.842 156.566 280.375 156.563C279.649 156.562 278.916 156.537 278.189 156.512C277.468 156.487 276.747 156.462 276.075 156.461L276.073 158.461C276.705 158.461 277.389 158.486 278.12 158.511C278.843 158.536 279.608 158.562 280.371 158.563C281.884 158.566 283.481 158.476 284.87 158.05L284.284 156.138ZM276.075 156.461L259.171 156.446L259.169 158.446L276.073 158.461L276.075 156.461ZM259.186 156.446L226.516 155.908L226.484 157.908L259.154 158.446L259.186 156.446ZM226.501 155.908C219.819 155.901 212.499 155.908 206.009 155.908V157.908C212.501 157.908 219.819 157.901 226.499 157.908L226.501 155.908ZM206.013 155.908L150.392 155.667L150.384 157.667L206.005 157.908L206.013 155.908ZM150.387 155.667L93.3793 155.709L93.3807 157.709L150.389 157.667L150.387 155.667ZM93.3795 155.709L14.4975 155.747L14.4985 157.747L93.3805 157.709L93.3795 155.709Z"
            fill="black" mask="url(#path-110-inside-7_38_284)" />
    </g>
    <path id="Vector_16"
        d="M889.342 128.658L889.363 146.517L888.822 146.757C888.389 145.854 888.431 144.991 888.398 144.008L888.43 132.792C888.435 132.186 888.237 130.063 888.457 129.595C888.64 129.207 889.047 128.97 889.342 128.658Z"
        fill="#080807" />
    <path id="section_6"
        d="M150.923 137.404L205.818 137.441L205.831 151.399C205.83 151.792 205.847 152.23 205.864 152.678L205.866 152.751C205.884 153.23 205.902 153.722 205.901 154.207C205.899 155.044 205.84 155.809 205.659 156.406L150.889 156.169L150.923 137.404Z"
        fill="#802423" stroke="black" />
    <path id="section_5"
        d="M111.774 137.409H111.774L149.923 137.404L149.889 156.167L93.8819 156.209L93.9494 137.44C97.805 137.073 101.919 137.187 105.983 137.3C107.936 137.355 109.878 137.409 111.774 137.409Z"
        fill="#3966B6" stroke="black" />
    <path id="secton_7"
        d="M206.538 137.5L265.411 137.537L265.425 151.493C265.424 151.885 265.442 152.325 265.46 152.772L265.463 152.846C265.482 153.324 265.501 153.815 265.5 154.3C265.498 155.14 265.434 155.904 265.239 156.499L206.501 156.261L206.538 137.5Z"
        fill="#6B2F9E" stroke="black" />
    <path id="section_4"
        d="M15.2998 137.04L92.9491 137.485L92.8817 156.209L14.9943 156.247C14.9862 155.607 14.9657 154.706 14.9416 153.643C14.9335 153.29 14.9251 152.92 14.9166 152.536C14.8746 150.638 14.8301 148.38 14.8201 146.163C14.81 143.944 14.8345 141.774 14.9298 140.05C14.9775 139.188 15.0424 138.446 15.1277 137.87C15.1704 137.582 15.217 137.343 15.2667 137.156C15.278 137.113 15.289 137.075 15.2998 137.04Z"
        fill="#C7DB52" stroke="black" />
    <path id="section_18"
        d="M571.051 145.456C568.938 145.417 566.809 145.46 564.902 145.779L564.854 134.033L564.854 134.031C564.851 133.628 564.853 133.212 564.855 132.788C564.863 130.921 564.871 128.894 564.474 127.029C568.956 126.532 573.725 126.643 578.417 126.753C580.394 126.799 582.358 126.844 584.28 126.844L624.525 126.848L624.525 126.848L684.852 126.831L684.852 126.831C688.033 126.83 691.226 126.793 694.422 126.756C702.192 126.666 709.983 126.576 717.673 126.994L718.103 128.588L718.32 145.533L717.044 145.714L607.311 145.634H607.311L577.794 145.643C576.607 145.644 575.35 145.597 574.05 145.548C573.072 145.512 572.069 145.475 571.051 145.456Z"
        fill="#0E064F" stroke="black" />
    <path id="section_17"
        d="M543.612 34.0592V33.5595L543.112 33.5592L424.884 33.4797L424.723 14.8036L456.732 14.7311L456.733 14.7311L519.907 14.7018L537.742 14.7203L537.743 14.2203L537.743 14.7203L537.742 14.7203C538.067 14.7209 538.484 14.7017 538.931 14.6812L539.018 14.6772C539.504 14.655 540.029 14.632 540.545 14.6277C541.062 14.6234 541.556 14.6381 541.98 14.6886C542.416 14.7404 542.725 14.8246 542.905 14.9271L542.905 14.9272C542.985 14.9726 543.06 14.9865 543.083 14.9908C543.118 14.9971 543.15 15.0001 543.174 15.0018C543.224 15.0052 543.278 15.0055 543.329 15.0046C543.434 15.0029 543.569 14.9955 543.717 14.9851C544.017 14.9641 544.406 14.9286 544.805 14.8913C544.888 14.8835 544.971 14.8756 545.054 14.8679C545.787 14.7988 546.479 14.7336 546.74 14.7339C546.74 14.7339 546.741 14.7339 546.741 14.7339L562.991 14.7526L563.033 96.4292L563.033 96.4293L563.04 116.031L563.04 116.032C563.041 116.888 563.018 117.78 562.995 118.69C562.93 121.242 562.861 123.936 563.305 126.382L563.307 126.391L563.368 126.696L563.371 126.711L563.375 126.726C563.869 128.599 563.861 130.685 563.854 132.739C563.852 133.174 563.851 133.608 563.854 134.038C563.854 134.038 563.854 134.038 563.854 134.039L563.902 145.939C559.25 146.493 554.253 146.362 549.339 146.233C547.408 146.182 545.491 146.132 543.612 146.123V34.0592Z"
        fill="#ECBEBB" stroke="black" />
    <path id="section_8"
        d="M267.124 136.939L267.036 14.6932L423.723 14.8044L423.884 33.4791L284.712 33.388L284.212 33.3877L284.212 33.8879L284.201 122.348L284.199 146.09C284.198 147.81 284.167 150.558 284.137 152.878C284.122 154.038 284.107 155.09 284.096 155.852C284.093 156.023 284.091 156.18 284.089 156.32C284.087 156.421 284.086 156.514 284.085 156.597L267.11 156.696L267.124 136.939V136.939Z"
        fill="#802423" stroke="black" />
    <path id="section_53" transform="rotate(90 526.5 343.5)" fill="white" stroke="black"
        d="M526.5 343.5h116v10H526.5Z" />
    <path id="section_49" transform="rotate(90 560.5 343.5)" fill="white" stroke="black"
        d="M560.5 343.5h116v10H560.5Z" />
    <path id="Vector 1" d="M742 239V317" stroke="black" />
    <path id="Vector 5" d="M876 188V343" stroke="black" />
    <path id="Vector 6" d="M876 351V463" stroke="black" />
    <path id="Vector 7" d="M473 199L473 317" stroke="black" />
    <path id="Vector 8" d="M430 200L430 318" stroke="black" />
    <path id="Vector 9" d="M393 199L393 317" stroke="black" />
    <path id="Vector 10" d="M388 343V500" stroke="black" />
    <path id="Vector 12" d="M651 199V317" stroke="black" />
    <path id="Vector 15" d="M760 346V463" stroke="black" />
    <path id="Vector 17" d="M831 265V317" stroke="black" />
    <path id="Vector 18" d="M161 199V317" stroke="black" />
    <path id="section_0" transform="rotate(90 85.5 589.5)" stroke="black" d="M85.5 589.5h52v20H85.5Z" />
    <path id="section_entrance" d="M108.903 619.521V637H121V619.5H126L115 606L104 619.521H108.903Z" fill="#008080"
        stroke="#008080" />
    <path id="section_85"
        d="M149.504 490.093C149.509 476.993 149.516 455.143 149.513 441.992C149.511 436.219 154.238 431.5 160.012 431.5C165.708 431.5 170.325 436.118 170.325 441.814V490.09C170.325 495.839 165.665 500.5 159.915 500.5C154.163 500.5 149.502 495.843 149.504 490.093Z"
        fill="#D5D1D5" stroke="black" />
    <path id="section_94"
        d="M62.5065 535.012C62.5123 521.154 62.5196 500.041 62.5169 486.123C62.5154 478.635 68.6589 472.5 76.1481 472.5C83.5221 472.5 89.5 478.478 89.5 485.852V535.004C89.5 542.457 83.4575 548.5 76.0037 548.5C68.5464 548.5 62.5033 542.468 62.5065 535.012Z"
        fill="#D5D1D5" stroke="black" />
    <g id="section_1">
        <path id="Rectangle 4" transform="rotate(90 165.5 542.5)" stroke="black" d="M165.5 542.5h52v20H165.5Z" />
        <path id="Vector 20" d="M540.5 542.5H165.5V594.5H549L630 562H876.5V501L630 504L540.5 542.5Z" stroke="black" />
    </g>
</svg>