<svg width="29" height="28" viewBox="0 0 29 28" fill="none" xmlns="http://www.w3.org/2000/svg">
<path d="M21.864 22.495C21.729 20.107 20.367 19.349 18.375 18.685C16.853 18.178 16.434 16.58 16.319 15.732" stroke="#565D6D" stroke-width="2.4" stroke-miterlimit="10"/>
<path d="M13.43 15.731C13.317 16.575 12.906 18.175 11.375 18.685C9.38297 19.349 8.01897 20.105 7.88397 22.493" stroke="#565D6D" stroke-width="2.4" stroke-miterlimit="10"/>
<path d="M14.875 16C12.666 16 10.875 14.209 10.875 12V11C10.875 8.791 12.666 7 14.875 7C17.084 7 18.875 8.791 18.875 11V12C18.875 14.209 17.084 16 14.875 16Z" stroke="#565D6D" stroke-width="2.4" stroke-miterlimit="10" stroke-linecap="square"/>
<path d="M14.875 25C20.9501 25 25.875 20.0751 25.875 14C25.875 7.92487 20.9501 3 14.875 3C8.79987 3 3.875 7.92487 3.875 14C3.875 20.0751 8.79987 25 14.875 25Z" stroke="#565D6D" stroke-width="2.4" stroke-miterlimit="10" stroke-linecap="square"/>
</svg>
